<svg width="2000" height="2000" viewBox="0 0 2000 2000" fill="none" xmlns="http://www.w3.org/2000/svg">
<g clip-path="url(#clip0)">
<path d="M1440.83 500L1357.5 583.333L524.167 1416.67L500 1440.83V1500H559.167L642.5 1416.67L1475.83 583.333L1500 559.167V500H1440.83Z" fill="#141C63"/>
<path d="M1264.17 500H1146.67L1063.33 583.333L500 1146.67V1264.17L1180.83 583.333L1264.17 500Z" fill="#141C63"/>
<path d="M970 500H851.667H500V583.333H768.333L500 851.667V970L886.667 583.333L970 500Z" fill="#141C63"/>
<path d="M735.834 1500H853.334L936.667 1416.67L1500 853.334V735.834L819.167 1416.67L735.834 1500Z" fill="#141C63"/>
<path d="M1030 1500H1148.33H1500V1416.67H1231.67L1500 1148.33V1030L1113.33 1416.67L1030 1500Z" fill="#141C63"/>
</g>
<defs>
<clipPath id="clip0">
<rect width="1000" height="1000" fill="white" transform="translate(500 500)"/>
</clipPath>
</defs>
</svg>
